<svg xmlns="http://www.w3.org/2000/svg" width="48" height="48" viewBox="0 0 24 24" fill="white">
  <path d="M12 .5C5.7.5.5 5.7.5 12c0 5.1 3.3 9.4 7.8 10.9.6.1.8-.3.8-.6v-2.2c-3.2.7-3.9-1.5-3.9-1.5-.5-1.2-1.1-1.5-1.1-1.5-.9-.6.1-.6.1-.6 1 .1 1.6 1 1.6 1 .9 1.6 2.4 1.2 3 .9.1-.6.4-1.2.7-1.4-2.5-.3-5.1-1.2-5.1-5.4 0-1.2.4-2.1 1-2.9-.1-.3-.4-1.3.1-2.7 0 0 .8-.3 2.7 1 .8-.2 1.6-.3 2.5-.3s1.7.1 2.5.3c1.9-1.3 2.7-1 2.7-1 .5 1.4.2 2.4.1 2.7.6.8 1 1.7 1 2.9 0 4.2-2.6 5.1-5.1 5.4.4.3.7 1 .7 2v3c0 .3.2.7.8.6 4.5-1.5 7.8-5.8 7.8-10.9C23.5 5.7 18.3.5 12 .5z"/>
</svg>