<svg xmlns="http://www.w3.org/2000/svg" width="46" height="46" viewBox="0 0 48 48">
  <path fill="#EA4335" d="M24 9.5c3.2 0 6.1 1.1 8.3 3.2l6.2-6.2C34.5 2.7 29.5.5 24 .5 14.8.5 6.9 6.5 3.3 14.7l7.3 5.7C12.5 14.6 17.7 9.5 24 9.5z"/>
  <path fill="#4285F4" d="M46.5 24.5c0-1.6-.1-3.1-.4-4.5H24v9h12.7c-.6 3-2.5 5.5-5.3 7.2v5.9h8.5c5-4.7 6.6-11.6 6.6-17.6z"/>
  <path fill="#FBBC05" d="M10.6 28.4c-1-2.7-1-5.7 0-8.4L3.3 14.7c-3 5.9-3 12.9 0 18.8l7.3-5.1z"/>
  <path fill="#34A853" d="M24 46.5c6.5 0 12-2.1 16-5.8l-8.5-5.9c-2.3 1.5-5.2 2.3-7.5 2.3-6.3 0-11.5-5.1-12.7-11.8l-7.3 5.1c3.6 8.1 11.5 13.1 20 13.1z"/>
  <path fill="none" d="M0 0h48v48H0z"/>
</svg>